<?xml version="1.0" encoding="UTF-8" standalone="yes"?>
<svg xmlns="http://www.w3.org/2000/svg" xmlns:xlink="http://www.w3.org/1999/xlink" width="990.196472pt" height="579.016541pt" version="1.1" viewBox="865.765198 434.370850 990.196472 579.016541">
  <!--
	Exported with Concepts: Smarter Sketching
	Version: 823 on iOS 13.1
	https://concepts.app/
	-->
  <title>Untitled 4</title>
  <desc>Drawing exported from Concepts: Smarter Sketching</desc>
  <g id="Pen" opacity="1.000">
    <path id="STROKE_e5b0c307-50ff-4f3b-90a1-3607d608c249" opacity="1.000" fill="none" stroke="#072b67" stroke-width="0.840" stroke-opacity="1.000" stroke-linecap="round" stroke-linejoin="round" d="M 876.735 838.131 Q 876.735 838.079 876.795 837.311 Q 879.412 837.926 879.975 835.640 Q 879.080 835.289 886.475 835.372 Q 893.870 835.454 901.260 835.036 Q 908.650 834.618 918.869 833.687 Q 929.088 832.756 934.397 832.327 Q 939.707 831.897 950.815 831.134 Q 961.924 830.372 970.634 829.963 Q 979.345 829.555 985.248 829.287 Q 991.150 829.019 996.821 828.760 Q 1002.492 828.501 1033.141 825.966 Q 1063.789 823.431 1080.662 822.268 Q 1097.535 821.106 1106.792 820.434 Q 1116.048 819.762 1133.140 818.759 Q 1150.232 817.756 1162.770 817.258 Q 1175.307 816.760 1189.124 816.182 Q 1202.942 815.604 1212.310 815.291 Q 1221.677 814.979 1230.850 814.747 Q 1240.022 814.515 1280.158 813.273 Q 1320.294 812.031 1341.885 811.410 Q 1363.477 810.789 1373.053 810.500 Q 1382.629 810.211 1397.653 809.981 Q 1412.677 809.750 1424.448 809.556 Q 1436.220 809.363 1454.604 809.265 Q 1472.989 809.168 1486.744 809.192 Q 1500.500 809.216 1508.122 809.274 Q 1515.745 809.331 1535.146 809.024 Q 1554.548 808.716 1587.208 809.462 Q 1619.869 810.207 1636.316 810.813 Q 1652.763 811.419 1664.768 812.009 Q 1676.772 812.600 1685.940 812.972 Q 1695.108 813.344 1699.526 813.709 Q 1703.944 814.074 1730.486 815.442 Q 1757.029 816.810 1777.375 816.776 Q 1797.720 816.742 1806.897 816.835 Q 1816.074 816.928 1823.831 815.966 Q 1831.587 815.003 1835.446 814.213 Q 1839.305 813.423 1841.884 812.659 Q 1844.463 811.895 1844.828 810.966 Q 1845.194 810.036 1844.870 809.485 Q 1844.545 808.934 1841.998 808.244 Q 1839.450 807.553 1837.803 807.438 Q 1836.156 807.324 1833.886 807.212 Q 1831.616 807.099 1830.898 808.274 Q 1830.181 809.448 1829.809 809.936 "></path>
    <path id="STROKE_6c208874-5c60-4cce-a8db-c58ccacff2f2" opacity="1.000" fill="none" stroke="#072b67" stroke-width="0.877" stroke-opacity="1.000" stroke-linecap="round" stroke-linejoin="round" d="M 1114.528 674.837 Q 1114.474 674.452 1114.201 672.554 Q 1114.309 673.810 1114.007 700.867 Q 1113.704 727.924 1113.101 742.163 Q 1112.497 756.401 1112.530 762.872 Q 1112.562 769.342 1112.944 772.225 Q 1113.327 775.107 1114.406 777.209 Q 1115.484 779.311 1116.687 780.290 Q 1117.890 781.270 1118.795 780.836 Q 1119.700 780.402 1120.027 779.914 "></path>
    <path id="STROKE_ba36a808-d5f9-4fed-af92-a59dd8c37f14" opacity="1.000" fill="none" stroke="#072b67" stroke-width="0.842" stroke-opacity="1.000" stroke-linecap="round" stroke-linejoin="round" d="M 1110.397 781.098 Q 1110.268 780.981 1117.836 782.154 Q 1125.403 783.327 1129.887 783.685 Q 1134.371 784.043 1137.769 784.090 Q 1141.167 784.138 1142.351 784.193 Q 1143.534 784.249 1155.174 784.357 Q 1166.814 784.465 1177.452 784.265 Q 1188.089 784.065 1204.066 782.708 Q 1220.043 781.351 1230.907 780.595 Q 1241.772 779.840 1248.230 779.390 Q 1254.689 778.940 1278.239 778.686 Q 1301.789 778.432 1315.735 778.479 Q 1329.681 778.526 1336.747 778.490 Q 1343.813 778.454 1349.771 778.528 Q 1355.729 778.601 1371.956 778.814 Q 1388.184 779.027 1396.472 778.953 Q 1404.760 778.880 1410.792 779.040 Q 1416.824 779.200 1430.204 778.875 Q 1443.584 778.551 1453.319 777.568 Q 1463.055 776.585 1471.664 774.246 Q 1471.456 773.914 1471.247 773.644 "></path>
    <path id="STROKE_f7029b83-ead9-492f-bfd3-18a2a100b715" opacity="1.000" fill="none" stroke="#072b67" stroke-width="0.880" stroke-opacity="1.000" stroke-linecap="round" stroke-linejoin="round" d="M 1119.373 670.623 Q 1121.129 670.508 1120.785 670.457 Q 1123.324 669.732 1122.836 669.917 Q 1122.392 669.992 1124.013 669.713 Q 1125.635 669.434 1129.785 669.188 Q 1133.936 668.941 1139.826 669.453 Q 1145.716 669.966 1149.837 670.548 Q 1153.959 671.131 1154.800 671.190 Q 1155.640 671.249 1161.522 672.059 Q 1167.403 672.868 1191.842 673.427 Q 1216.282 673.986 1246.011 675.240 Q 1275.740 676.493 1290.380 676.880 Q 1305.020 677.266 1311.503 677.449 Q 1317.986 677.633 1336.833 678.150 Q 1355.679 678.666 1369.784 678.442 Q 1383.889 678.217 1393.274 678.682 Q 1402.658 679.147 1417.315 678.436 Q 1431.971 677.726 1439.342 677.005 Q 1446.712 676.285 1452.449 675.300 Q 1458.187 674.315 1481.829 671.422 Q 1482.061 673.269 1482.007 673.255 Q 1481.953 673.241 1482.002 673.304 Q 1482.051 673.367 1481.613 673.936 Q 1481.175 674.505 1480.640 675.045 "></path>
    <path id="STROKE_11f37b19-4bfb-4bf1-9d69-61edfd3d128a" opacity="1.000" fill="none" stroke="#072b67" stroke-width="0.919" stroke-opacity="1.000" stroke-linecap="round" stroke-linejoin="round" d="M 1472.763 670.519 Q 1472.704 670.519 1472.645 670.519 Q 1472.629 672.656 1472.701 687.790 Q 1472.772 702.924 1472.554 721.291 Q 1472.336 739.658 1472.298 748.414 Q 1472.260 757.170 1472.448 760.714 Q 1472.637 764.258 1472.982 766.404 Q 1473.326 768.549 1474.984 770.536 Q 1476.642 772.523 1476.954 772.689 "></path>
    <path id="STROKE_2022d802-189d-4753-8b84-4f4a1bb2cc0c" opacity="1.000" fill="none" stroke="#072b67" stroke-width="0.987" stroke-opacity="1.000" stroke-linecap="round" stroke-linejoin="round" d="M 1149.840 789.195 Q 1149.781 789.195 1149.187 789.195 Q 1149.035 791.742 1149.097 791.095 Q 1148.788 791.621 1149.082 794.714 Q 1149.376 797.807 1151.475 801.796 Q 1153.574 805.784 1155.248 808.116 Q 1156.921 810.448 1158.122 812.127 Q 1159.322 813.806 1162.593 815.739 Q 1165.863 817.671 1168.443 818.316 Q 1171.024 818.960 1175.819 819.418 Q 1180.615 819.875 1185.430 818.932 Q 1190.245 817.990 1197.154 813.234 Q 1204.064 808.478 1218.236 790.171 Q 1218.013 790.492 1217.790 790.814 "></path>
    <path id="STROKE_c853dc60-c7d9-4521-9ca7-d211c0850f56" opacity="1.000" fill="none" stroke="#072b67" stroke-width="0.976" stroke-opacity="1.000" stroke-linecap="round" stroke-linejoin="round" d="M 1353.688 780.454 Q 1353.748 780.454 1354.135 780.454 Q 1354.449 780.769 1354.202 784.456 Q 1353.955 788.143 1355.872 791.966 Q 1357.790 795.790 1360.757 798.952 Q 1363.724 802.114 1369.234 803.404 Q 1374.743 804.694 1380.973 804.702 Q 1387.203 804.710 1392.375 802.954 Q 1397.548 801.199 1402.156 798.400 Q 1406.765 795.601 1411.367 790.855 Q 1415.968 786.109 1416.897 773.270 Q 1415.667 772.141 1413.822 772.327 Q 1411.978 772.513 1411.056 772.564 "></path>
    <path id="STROKE_c1a6114c-ffab-4186-ab3c-3dbd6fa4b3e7" opacity="1.000" fill="none" stroke="#072b67" stroke-width="0.874" stroke-opacity="1.000" stroke-linecap="round" stroke-linejoin="round" d="M 1472.198 724.832 Q 1473.458 725.321 1488.326 722.874 Q 1503.195 720.426 1512.004 719.020 Q 1520.814 717.613 1535.307 716.701 Q 1549.800 715.790 1558.931 715.833 Q 1568.062 715.876 1573.887 716.702 Q 1579.711 717.529 1582.810 719.099 Q 1585.908 720.670 1586.399 721.158 "></path>
    <path id="STROKE_febbdb2a-2048-48f2-a05f-2c313e749fea" opacity="1.000" fill="none" stroke="#072b67" stroke-width="1.091" stroke-opacity="1.000" stroke-linecap="round" stroke-linejoin="round" d="M 1590.500 699.337 Q 1590.934 698.073 1590.958 697.874 Q 1590.981 697.675 1590.956 697.608 Q 1590.931 697.541 1590.941 697.616 Q 1590.951 697.690 1590.938 696.560 Q 1590.926 695.430 1590.989 695.757 Q 1591.052 696.084 1590.679 692.755 Q 1590.560 692.755 1590.396 692.755 Q 1589.634 692.471 1588.706 701.482 Q 1587.778 710.493 1587.657 716.154 Q 1587.535 721.816 1588.481 725.191 Q 1589.427 728.565 1590.640 730.130 Q 1591.853 731.694 1592.344 732.286 "></path>
    <path id="STROKE_018fb309-6082-4db4-a6c2-408ddb19b356" opacity="1.000" fill="none" stroke="#072b67" stroke-width="1.227" stroke-opacity="1.000" stroke-linecap="round" stroke-linejoin="round" d="M 1590.292 698.693 Q 1591.184 698.069 1591.050 698.101 Q 1592.487 697.101 1591.972 697.510 Q 1593.630 697.167 1595.135 702.656 Q 1596.639 708.144 1600.022 711.989 Q 1603.405 715.833 1605.568 717.450 Q 1607.731 719.068 1608.984 719.602 Q 1610.236 720.137 1611.775 721.405 Q 1613.314 722.673 1613.418 722.881 "></path>
    <path id="STROKE_3383c942-ef58-458b-ad48-5790f7855561" opacity="1.000" fill="none" stroke="#072b67" stroke-width="1.371" stroke-opacity="1.000" stroke-linecap="round" stroke-linejoin="round" d="M 1612.229 723.753 Q 1611.085 724.042 1606.517 727.323 Q 1601.949 730.605 1599.082 732.497 Q 1596.214 734.389 1595.059 735.807 Q 1593.903 737.224 1594.097 738.103 Q 1594.290 738.982 1594.513 739.304 "></path>
    <path id="STROKE_b7375821-f4a5-4aae-9111-db293b5c4db5" opacity="1.000" fill="none" stroke="#072b67" stroke-width="1.102" stroke-opacity="1.000" stroke-linecap="round" stroke-linejoin="round" d="M 1591.155 647.930 Q 1590.968 647.369 1591.541 644.255 Q 1591.645 644.255 1591.868 644.255 Q 1592.619 645.411 1592.010 653.833 Q 1591.400 662.255 1591.062 669.377 Q 1590.723 676.498 1590.828 676.872 "></path>
    <path id="STROKE_03c2b3e5-f8d4-4257-a391-237481ec4157" opacity="1.000" fill="none" stroke="#072b67" stroke-width="1.462" stroke-opacity="1.000" stroke-linecap="round" stroke-linejoin="round" d="M 1592.135 645.335 Q 1593.141 644.936 1593.218 644.911 Q 1593.294 644.887 1593.146 644.857 Q 1592.963 643.518 1601.838 645.350 Q 1610.713 647.182 1611.575 647.515 "></path>
    <path id="STROKE_53fda57f-82ed-4546-bfe0-add5d43ee717" opacity="1.000" fill="none" stroke="#072b67" stroke-width="1.152" stroke-opacity="1.000" stroke-linecap="round" stroke-linejoin="round" d="M 1592.225 661.550 Q 1592.225 661.498 1592.135 661.010 Q 1594.496 661.010 1594.023 661.010 Q 1595.987 660.592 1605.156 662.311 Q 1614.324 664.031 1615.350 664.456 "></path>
    <path id="STROKE_c258e117-add5-4d79-ad68-caa9951dcba9" opacity="1.000" fill="none" stroke="#072b67" stroke-width="1.530" stroke-opacity="1.000" stroke-linecap="round" stroke-linejoin="round" d="M 1281.964 730.023 Q 1282.024 730.023 1282.499 730.023 Q 1282.499 727.839 1282.499 728.611 Q 1282.499 726.572 1282.499 726.992 Q 1282.275 726.788 1281.709 726.550 Q 1281.143 726.311 1279.735 726.997 Q 1278.328 727.682 1277.880 728.493 Q 1277.433 729.303 1276.971 730.581 Q 1276.509 731.860 1276.480 732.720 Q 1276.451 733.580 1276.991 734.331 Q 1277.531 735.082 1278.499 735.031 Q 1279.466 734.980 1280.126 734.919 Q 1280.785 734.858 1280.762 734.935 Q 1280.738 735.011 1282.595 733.835 Q 1284.453 732.660 1283.644 728.777 Q 1283.168 726.625 1279.913 732.130 Q 1279.675 732.672 1280.825 732.335 Q 1281.976 731.998 1282.736 731.306 Q 1283.497 730.614 1283.615 730.384 Q 1283.734 730.155 1283.651 730.273 Q 1283.569 730.392 1284.149 729.537 Q 1284.729 728.683 1284.788 727.096 Q 1284.729 727.096 1284.506 727.158 Q 1284.307 727.668 1284.488 728.441 Q 1284.669 729.213 1284.877 729.587 "></path>
    <circle id="STROKE_5349f484-ca05-4894-92b1-2e909f5ae6de" opacity="1.000" fill="#072b67" stroke="#072b67" stroke-width="0.1" stroke-opacity="1.000" fill-opacity="1.000" cx="1294.508" cy="466.158" r="0.765"></circle>
    <path id="STROKE_ed41163e-7af8-4778-8e1f-f1a552175232" opacity="1.000" fill="none" stroke="#072b67" stroke-width="0.944" stroke-opacity="1.000" stroke-linecap="round" stroke-linejoin="round" d="M 1290.168 453.638 Q 1289.600 453.391 1288.907 456.693 Q 1288.214 459.995 1288.182 464.065 Q 1288.149 468.135 1288.344 476.727 Q 1288.538 485.319 1289.063 492.862 Q 1289.589 500.405 1289.752 501.703 "></path>
    <path id="STROKE_8923c99f-889c-4445-9d51-8c511e3e159f" opacity="1.000" fill="none" stroke="#072b67" stroke-width="1.288" stroke-opacity="1.000" stroke-linecap="round" stroke-linejoin="round" d="M 1283.272 540.797 Q 1283.573 541.950 1283.712 556.551 Q 1283.852 571.152 1283.688 572.335 "></path>
    <path id="STROKE_ebe83981-fe08-46c3-b47a-3e80f851d9bd" opacity="1.000" fill="none" stroke="#072b67" stroke-width="1.461" stroke-opacity="1.000" stroke-linecap="round" stroke-linejoin="round" d="M 1281.845 604.952 Q 1281.845 606.512 1281.845 606.509 Q 1281.830 609.120 1281.943 607.836 Q 1282.057 606.553 1282.471 618.038 Q 1282.886 629.524 1282.618 630.552 "></path>
    <path id="STROKE_792b1d40-5229-457d-9f65-4caefc6950ca" opacity="1.000" fill="none" stroke="#072b67" stroke-width="1.362" stroke-opacity="1.000" stroke-linecap="round" stroke-linejoin="round" d="M 1280.121 663.709 Q 1280.687 665.453 1280.508 665.162 Q 1280.930 667.398 1280.835 666.834 Q 1281.756 668.394 1282.001 678.389 Q 1282.247 688.385 1282.083 689.516 "></path>
    <path id="STROKE_1c2de6d9-194b-445e-9cec-ee052241aaa1" opacity="1.000" fill="none" stroke="#072b67" stroke-width="1.530" stroke-opacity="1.000" stroke-linecap="round" stroke-linejoin="round" d="M 1279.705 715.552 Q 1279.826 714.261 1279.729 722.760 Q 1279.631 731.258 1279.468 731.954 "></path>
    <path id="STROKE_e96c9b7c-5df4-4c62-a613-138a8cb44230" opacity="1.000" fill="none" stroke="#072b67" stroke-width="1.402" stroke-opacity="1.000" stroke-linecap="round" stroke-linejoin="round" d="M 1277.743 759.069 Q 1277.339 758.682 1277.303 768.706 Q 1277.268 778.731 1277.000 779.707 "></path>
    <path id="STROKE_72685c2c-2b9e-4fc6-b0cd-6d87fc547b0d" opacity="1.000" fill="none" stroke="#072b67" stroke-width="1.513" stroke-opacity="1.000" stroke-linecap="round" stroke-linejoin="round" d="M 1273.642 821.501 Q 1273.900 821.568 1273.830 833.789 Q 1273.760 846.010 1273.433 846.768 "></path>
    <path id="STROKE_ea059c1f-31f9-429e-89af-4751bae525c1" opacity="1.000" fill="none" stroke="#072b67" stroke-width="1.500" stroke-opacity="1.000" stroke-linecap="round" stroke-linejoin="round" d="M 1270.402 884.576 Q 1269.774 884.219 1270.415 893.221 Q 1271.055 902.224 1271.174 903.137 "></path>
    <path id="STROKE_14d50ebf-0e6b-4506-bfdb-1c3820f32f99" opacity="1.000" fill="none" stroke="#072b67" stroke-width="0.982" stroke-opacity="1.000" stroke-linecap="round" stroke-linejoin="round" d="M 1270.402 937.810 Q 1269.204 938.750 1270.152 950.083 Q 1271.100 961.416 1271.264 962.226 "></path>
    <path id="STROKE_fe7b40c7-5635-4aef-9431-3f90e586d4d1" opacity="1.000" fill="none" stroke="#072b67" stroke-width="1.032" stroke-opacity="1.000" stroke-linecap="round" stroke-linejoin="round" d="M 1372.504 488.851 Q 1371.467 489.548 1367.599 496.771 Q 1363.730 503.994 1359.855 513.499 Q 1355.980 523.005 1353.478 529.738 Q 1350.977 536.470 1344.813 547.695 Q 1338.650 558.919 1333.494 569.252 Q 1328.337 579.584 1325.464 588.627 Q 1322.591 597.669 1318.703 606.151 Q 1314.815 614.633 1312.236 619.277 Q 1309.656 623.921 1303.689 638.890 Q 1297.722 653.859 1293.607 662.240 Q 1289.491 670.621 1287.747 676.347 Q 1286.004 682.073 1283.744 687.441 Q 1281.485 692.809 1277.453 700.052 Q 1273.421 707.294 1271.709 710.753 Q 1269.996 714.212 1266.977 720.566 Q 1263.958 726.920 1262.691 734.571 Q 1261.425 742.221 1261.425 742.542 "></path>
    <path id="STROKE_0be04067-04e0-410b-8659-317ba3fdca8e" opacity="1.000" fill="none" stroke="#072b67" stroke-width="1.344" stroke-opacity="1.000" stroke-linecap="round" stroke-linejoin="round" d="M 1264.457 739.740 Q 1264.034 739.740 1263.595 739.792 Q 1263.591 739.369 1263.632 740.695 Q 1263.673 742.020 1269.294 744.817 Q 1274.914 747.615 1287.047 752.207 Q 1287.047 752.321 1287.047 752.384 Q 1286.780 752.270 1286.512 752.155 "></path>
    <path id="STROKE_bb1edc41-6a0f-4913-93d3-79ee20bda860" opacity="1.000" fill="none" stroke="#072b67" stroke-width="1.128" stroke-opacity="1.000" stroke-linecap="round" stroke-linejoin="round" d="M 1398.304 498.028 Q 1398.260 498.028 1398.215 497.820 Q 1396.822 498.504 1397.294 498.516 Q 1396.562 500.527 1395.650 501.704 Q 1394.739 502.881 1389.901 514.452 Q 1385.064 526.023 1381.743 534.048 Q 1378.422 542.073 1376.087 546.935 Q 1373.751 551.797 1372.495 554.690 Q 1371.239 557.583 1370.540 559.371 Q 1369.842 561.158 1363.002 579.236 Q 1356.163 597.314 1352.609 607.559 Q 1349.055 617.804 1346.279 624.801 Q 1343.502 631.798 1341.807 635.219 Q 1340.112 638.640 1336.817 647.802 Q 1333.523 656.963 1328.054 670.411 Q 1322.586 683.858 1319.203 691.544 Q 1315.821 699.230 1313.896 702.856 Q 1311.972 706.481 1310.461 710.293 Q 1308.949 714.105 1305.122 722.502 Q 1301.296 730.900 1299.092 735.343 Q 1296.888 739.787 1294.735 744.613 Q 1292.582 749.439 1291.727 751.363 Q 1290.873 753.287 1290.169 754.526 Q 1289.465 755.764 1289.303 756.072 Q 1289.141 756.380 1288.421 756.998 Q 1287.701 757.616 1287.374 757.782 "></path>
    <path id="STROKE_f3da751c-2d50-4909-8454-56c015731ce4" opacity="1.000" fill="none" stroke="#072b67" stroke-width="1.349" stroke-opacity="1.000" stroke-linecap="round" stroke-linejoin="round" d="M 1374.436 486.795 Q 1372.548 486.952 1373.039 487.013 Q 1372.712 487.180 1371.404 487.771 Q 1371.422 487.378 1373.088 487.400 Q 1374.753 487.421 1375.605 487.832 Q 1376.457 488.243 1376.822 488.465 Q 1377.187 488.687 1379.726 490.414 Q 1382.264 492.142 1396.209 495.059 Q 1396.981 494.853 1395.518 496.196 Q 1394.054 497.540 1393.667 497.924 "></path>
    <path id="STROKE_82e51013-3802-40d0-bd0b-7958dae1e59f" opacity="1.000" fill="none" stroke="#072b67" stroke-width="1.227" stroke-opacity="1.000" stroke-linecap="round" stroke-linejoin="round" d="M 1160.095 709.614 Q 1160.011 709.170 1160.006 708.846 Q 1159.853 708.738 1157.836 743.622 Q 1157.729 744.366 1157.998 742.214 Q 1158.267 740.061 1158.490 739.407 "></path>
    <path id="STROKE_d2bd8625-7df6-4a8c-bb0c-e7c60f8eb2e0" opacity="1.000" fill="none" stroke="#072b67" stroke-width="1.354" stroke-opacity="1.000" stroke-linecap="round" stroke-linejoin="round" d="M 1162.146 708.410 Q 1162.146 708.472 1161.195 708.742 Q 1161.123 707.965 1161.335 712.170 Q 1161.548 716.376 1162.591 719.801 Q 1163.633 723.226 1164.618 724.712 Q 1165.602 726.199 1166.821 727.321 Q 1168.040 728.444 1169.187 728.506 Q 1170.335 728.569 1171.183 727.807 Q 1172.030 727.046 1172.377 726.124 Q 1172.724 725.203 1173.502 721.974 Q 1174.280 718.745 1186.044 709.385 Q 1186.142 711.928 1186.224 710.958 Q 1186.305 709.989 1186.033 719.530 Q 1185.761 729.071 1185.327 735.470 Q 1184.893 741.869 1186.728 746.425 Q 1187.061 747.322 1188.113 745.285 Q 1189.166 743.248 1189.492 742.771 "></path>
    <path id="STROKE_f077fea7-d306-4746-88ed-833bda88d88e" opacity="1.000" fill="none" stroke="#072b67" stroke-width="1.494" stroke-opacity="1.000" stroke-linecap="round" stroke-linejoin="round" d="M 1406.211 445.334 Q 1405.969 447.296 1406.033 446.621 Q 1405.237 449.045 1405.394 448.458 Q 1404.873 449.524 1403.380 453.117 Q 1401.886 456.711 1401.455 457.521 "></path>
    <path id="STROKE_4ac8c87b-c5cc-4d7c-85c6-1e3a1d95a528" opacity="1.000" fill="none" stroke="#072b67" stroke-width="1.527" stroke-opacity="1.000" stroke-linecap="round" stroke-linejoin="round" d="M 1394.321 474.919 Q 1394.049 475.006 1394.231 477.669 Q 1394.412 480.333 1393.514 482.653 Q 1392.615 484.973 1391.469 486.206 Q 1390.323 487.439 1389.774 488.083 "></path>
    <path id="STROKE_88ad40d9-2832-4005-a134-40ac327304b9" opacity="1.000" fill="none" stroke="#072b67" stroke-width="1.530" stroke-opacity="1.000" stroke-linecap="round" stroke-linejoin="round" d="M 1378.449 510.132 Q 1378.449 512.110 1378.449 511.741 Q 1378.449 513.441 1378.449 513.531 Q 1378.449 513.621 1378.449 513.475 Q 1378.363 514.763 1378.270 514.606 Q 1378.556 514.167 1378.109 514.983 Q 1377.662 515.800 1376.653 517.311 Q 1375.643 518.822 1375.113 519.753 Q 1374.583 520.683 1374.496 520.867 Q 1374.410 521.050 1373.771 522.076 Q 1373.131 523.102 1371.926 527.605 Q 1370.720 532.109 1370.453 532.596 "></path>
    <path id="STROKE_839411ac-c4c9-44f2-8f13-cfc36fb736e6" opacity="1.000" fill="none" stroke="#072b67" stroke-width="1.530" stroke-opacity="1.000" stroke-linecap="round" stroke-linejoin="round" d="M 1368.610 536.687 Q 1368.306 537.343 1367.753 538.332 Q 1367.199 539.322 1366.586 541.173 Q 1365.973 543.025 1365.467 544.110 Q 1364.960 545.195 1364.777 545.433 Q 1364.594 545.671 1364.661 545.589 Q 1364.727 545.508 1364.719 545.519 Q 1364.711 545.529 1364.640 545.606 Q 1364.568 545.684 1364.673 545.586 Q 1364.778 545.488 1364.042 546.364 Q 1363.306 547.241 1362.725 548.076 Q 1362.144 548.910 1362.091 548.952 Q 1362.037 548.993 1361.837 549.464 Q 1361.638 549.934 1361.435 550.386 Q 1361.233 550.839 1361.045 551.632 Q 1360.858 552.424 1360.521 553.468 Q 1360.183 554.511 1359.871 555.165 "></path>
    <path id="STROKE_202ee4f5-e034-4833-9248-90718229fa98" opacity="1.000" fill="none" stroke="#072b67" stroke-width="1.530" stroke-opacity="1.000" stroke-linecap="round" stroke-linejoin="round" d="M 1351.102 573.311 Q 1352.754 570.776 1349.602 578.412 Q 1346.451 586.048 1346.020 586.474 "></path>
    <path id="STROKE_632999aa-3327-46f5-918c-a0ab8a86d326" opacity="1.000" fill="none" stroke="#072b67" stroke-width="1.530" stroke-opacity="1.000" stroke-linecap="round" stroke-linejoin="round" d="M 1338.886 602.357 Q 1338.297 604.115 1338.366 603.707 Q 1338.395 604.629 1336.589 610.407 Q 1334.784 616.185 1334.457 616.724 "></path>
    <path id="STROKE_3e28fb3f-2243-4d06-b8b2-63b2a4523177" opacity="1.000" fill="none" stroke="#072b67" stroke-width="1.530" stroke-opacity="1.000" stroke-linecap="round" stroke-linejoin="round" d="M 1329.077 629.680 Q 1328.708 629.926 1328.174 630.326 Q 1327.640 630.726 1327.546 630.969 Q 1327.451 631.213 1327.684 630.337 Q 1327.916 629.461 1326.550 634.029 Q 1325.183 638.597 1324.856 639.085 "></path>
    <path id="STROKE_6b718acf-b5c6-4b5a-8a59-cb3ba37994f6" opacity="1.000" fill="none" stroke="#072b67" stroke-width="1.530" stroke-opacity="1.000" stroke-linecap="round" stroke-linejoin="round" d="M 1317.395 654.532 Q 1316.960 655.329 1315.565 660.406 Q 1314.170 665.484 1313.739 665.972 "></path>
    <path id="STROKE_70956785-aa99-4a7f-8a8f-575d0e4ae50c" opacity="1.000" fill="none" stroke="#072b67" stroke-width="1.530" stroke-opacity="1.000" stroke-linecap="round" stroke-linejoin="round" d="M 1309.191 676.664 Q 1309.475 676.453 1308.646 677.488 Q 1307.818 678.522 1308.062 678.336 Q 1307.482 679.907 1307.453 679.789 Q 1307.285 680.186 1307.027 680.904 Q 1306.768 681.622 1306.686 681.762 Q 1306.603 681.902 1306.163 682.889 Q 1305.723 683.876 1306.041 683.289 Q 1306.358 682.701 1305.181 685.055 Q 1304.005 687.409 1303.574 688.001 "></path>
    <path id="STROKE_6b335214-7a73-44d6-8c59-28f85ea11853" opacity="1.000" fill="none" stroke="#072b67" stroke-width="1.530" stroke-opacity="1.000" stroke-linecap="round" stroke-linejoin="round" d="M 1295.786 702.368 Q 1295.359 701.858 1294.222 704.813 Q 1293.085 707.767 1292.608 709.848 Q 1292.130 711.929 1291.803 712.521 "></path>
    <path id="STROKE_1e17db42-bd2b-41dc-a1ea-063fd10a98b6" opacity="1.000" fill="none" stroke="#072b67" stroke-width="1.530" stroke-opacity="1.000" stroke-linecap="round" stroke-linejoin="round" d="M 1285.739 725.704 Q 1285.700 725.368 1284.508 727.259 Q 1283.317 729.151 1282.945 729.587 "></path>
    <path id="STROKE_3b1fcb89-9673-4506-83b3-bee955eadfae" opacity="1.000" fill="none" stroke="#072b67" stroke-width="1.080" stroke-opacity="1.000" stroke-linecap="round" stroke-linejoin="round" d="M 1292.130 556.577 Q 1290.953 555.954 1291.346 555.040 Q 1291.740 554.126 1292.443 553.883 Q 1293.146 553.641 1294.175 553.221 Q 1295.204 552.801 1295.997 552.566 Q 1296.790 552.330 1297.924 551.947 Q 1299.059 551.564 1304.472 550.035 Q 1309.886 548.507 1315.150 548.116 Q 1320.414 547.726 1323.368 547.489 Q 1326.321 547.252 1329.048 547.945 Q 1331.776 548.638 1333.805 551.083 Q 1335.835 553.529 1337.821 559.070 Q 1339.807 564.612 1340.075 564.882 "></path>
    <path id="STROKE_35976af1-c6ee-44c1-a00e-0aa00b3eacd9" opacity="1.000" fill="none" stroke="#072b67" stroke-width="1.197" stroke-opacity="1.000" stroke-linecap="round" stroke-linejoin="round" d="M 1313.175 568.764 Q 1313.562 566.511 1313.412 566.927 Q 1312.876 564.954 1312.654 565.525 Q 1310.392 565.172 1310.916 565.318 Q 1309.771 564.411 1306.251 567.959 Q 1302.731 571.506 1300.380 575.407 Q 1298.028 579.308 1297.377 583.034 Q 1296.726 586.760 1297.413 588.468 Q 1298.101 590.175 1298.860 590.788 Q 1299.619 591.402 1301.420 592.197 Q 1303.220 592.992 1305.701 592.545 Q 1308.181 592.098 1309.890 591.459 Q 1311.598 590.820 1314.759 587.955 Q 1317.920 585.090 1319.438 583.109 Q 1320.955 581.127 1321.422 579.103 Q 1321.888 577.079 1322.030 574.516 Q 1322.172 571.953 1320.739 569.764 Q 1319.307 567.574 1317.543 566.393 Q 1315.779 565.212 1314.550 565.186 Q 1313.322 565.160 1312.730 565.166 Q 1312.138 565.172 1310.934 565.210 Q 1309.730 565.248 1307.036 567.273 Q 1304.342 569.298 1303.408 571.276 Q 1302.473 573.254 1302.086 575.782 Q 1301.698 578.310 1306.990 579.053 Q 1312.282 579.797 1316.295 578.599 Q 1320.308 577.401 1321.497 576.861 "></path>
    <path id="STROKE_97e2f53f-9e86-4740-aaf3-da87248c20b1" opacity="1.000" fill="none" stroke="#072b67" stroke-width="0.852" stroke-opacity="1.000" stroke-linecap="round" stroke-linejoin="round" d="M 1429.009 515.738 Q 1429.466 515.965 1427.134 520.637 Q 1424.803 525.309 1414.679 545.906 Q 1404.555 566.504 1399.235 577.725 Q 1393.915 588.947 1391.200 594.189 Q 1388.484 599.431 1383.618 609.012 Q 1378.752 618.593 1370.442 635.917 Q 1362.132 653.240 1356.808 664.678 Q 1351.483 676.117 1347.884 684.508 Q 1344.285 692.900 1341.255 702.418 Q 1338.226 711.936 1335.084 720.520 Q 1331.942 729.103 1329.573 734.245 Q 1327.204 739.386 1323.600 743.342 Q 1319.996 747.297 1319.684 747.505 "></path>
    <path id="STROKE_b617f21b-c530-4df3-b9f6-ccf230f79220" opacity="1.000" fill="none" stroke="#072b67" stroke-width="1.043" stroke-opacity="1.000" stroke-linecap="round" stroke-linejoin="round" d="M 1317.603 733.905 Q 1317.604 733.802 1317.604 733.033 Q 1317.543 733.540 1316.205 741.553 Q 1314.866 749.567 1314.482 758.156 Q 1316.287 760.231 1321.534 753.485 Q 1326.781 746.739 1332.514 738.189 Q 1338.247 729.639 1339.213 728.175 "></path>
    <path id="STROKE_bd907907-4fff-492d-83d2-7788185faa5b" opacity="1.000" fill="none" stroke="#072b67" stroke-width="1.146" stroke-opacity="1.000" stroke-linecap="round" stroke-linejoin="round" d="M 1416.912 522.984 Q 1416.912 523.036 1416.793 523.731 Q 1417.676 525.450 1436.723 512.935 Q 1436.875 512.915 1434.859 525.450 Q 1432.844 537.984 1432.576 539.386 "></path>
    <path id="STROKE_cff5618e-a907-4e40-bf1f-b20a306c8dad" opacity="1.000" fill="none" stroke="#072b67" stroke-width="1.227" stroke-opacity="1.000" stroke-linecap="round" stroke-linejoin="round" d="M 1426.839 579.892 Q 1426.780 579.892 1426.349 579.944 Q 1426.903 581.328 1425.058 589.605 Q 1423.214 597.883 1421.851 602.720 Q 1420.489 607.556 1420.223 609.566 Q 1419.957 611.576 1419.938 612.564 Q 1419.919 613.553 1420.454 613.906 Q 1420.988 614.259 1421.828 614.540 Q 1422.667 614.820 1426.271 614.761 Q 1429.874 614.701 1433.501 614.816 Q 1437.129 614.931 1451.808 612.510 Q 1451.748 612.510 1451.094 612.785 Q 1450.440 613.060 1449.965 613.278 "></path>
    <path id="STROKE_da7f463d-a38d-4161-a48c-129b73696a9a" opacity="1.000" fill="none" stroke="#072b67" stroke-width="1.004" stroke-opacity="1.000" stroke-linecap="round" stroke-linejoin="round" d="M 1184.736 512.499 Q 1183.816 512.499 1183.934 512.499 Q 1184.051 512.817 1182.395 541.579 Q 1180.739 570.342 1180.516 570.716 "></path>
    <path id="STROKE_8efd978b-2d5f-4166-82d4-472f3c2a167b" opacity="1.000" fill="none" stroke="#072b67" stroke-width="1.247" stroke-opacity="1.000" stroke-linecap="round" stroke-linejoin="round" d="M 1169.726 560.127 Q 1169.937 560.360 1169.610 560.255 Q 1169.283 560.150 1167.764 559.328 Q 1167.764 559.213 1167.764 558.840 Q 1166.555 558.515 1168.318 563.400 Q 1170.082 568.286 1171.516 571.806 Q 1172.951 575.325 1178.420 580.328 Q 1179.167 581.948 1197.979 558.300 Q 1198.514 558.518 1198.885 558.736 "></path>
    <path id="STROKE_b3422c7e-a3a8-48fc-9db3-96de13053375" opacity="1.000" fill="none" stroke="#072b67" stroke-width="1.266" stroke-opacity="1.000" stroke-linecap="round" stroke-linejoin="round" d="M 1173.382 543.600 Q 1173.382 543.652 1173.382 543.829 Q 1173.382 543.766 1173.382 543.164 Q 1173.338 543.164 1173.174 543.164 Q 1173.174 544.926 1173.174 544.410 Q 1173.172 546.366 1173.233 546.258 Q 1173.649 547.246 1174.942 553.627 Q 1176.236 560.008 1181.006 564.549 Q 1181.183 563.567 1182.879 561.924 Q 1184.575 560.281 1188.175 556.910 Q 1191.776 553.539 1198.766 536.271 Q 1198.746 538.477 1198.816 538.480 Q 1198.885 538.482 1199.004 538.970 "></path>
    <path id="STROKE_bcc609bb-0a3c-4952-aceb-88193b93841d" opacity="1.000" fill="none" stroke="#072b67" stroke-width="1.081" stroke-opacity="1.000" stroke-linecap="round" stroke-linejoin="round" d="M 1230.660 534.756 Q 1231.007 534.587 1230.436 533.012 Q 1229.865 531.438 1229.093 530.648 Q 1228.320 529.858 1227.062 529.462 Q 1225.804 529.065 1223.773 530.311 Q 1221.742 531.557 1220.039 534.179 Q 1218.337 536.800 1217.737 539.253 Q 1217.137 541.706 1216.968 543.763 Q 1216.799 545.819 1217.351 546.663 Q 1217.904 547.508 1219.818 548.074 Q 1221.733 548.640 1224.887 546.919 Q 1228.041 545.199 1230.111 541.338 Q 1232.181 537.477 1232.474 531.237 Q 1229.240 530.050 1228.707 541.521 Q 1228.173 552.991 1227.460 562.018 Q 1226.748 571.044 1225.734 576.974 Q 1224.720 582.904 1223.611 586.389 Q 1222.502 589.873 1221.249 591.608 Q 1219.996 593.343 1219.135 593.723 Q 1218.274 594.104 1217.941 593.806 Q 1217.607 593.508 1217.190 592.416 Q 1216.773 591.323 1216.530 590.625 Q 1216.286 589.926 1215.866 585.140 Q 1215.445 580.354 1216.073 575.865 Q 1216.701 571.376 1221.216 565.569 Q 1225.731 559.762 1229.715 555.425 Q 1233.699 551.089 1241.981 547.075 Q 1250.264 543.061 1250.635 542.957 "></path>
    <path id="STROKE_5c2f94a3-f0c6-4936-a941-f93441a9c2b7" opacity="1.000" fill="none" stroke="#072b67" stroke-width="0.980" stroke-opacity="1.000" stroke-linecap="round" stroke-linejoin="round" d="M 968.464 541.234 Q 968.464 541.394 968.464 539.925 Q 969.096 541.420 968.984 541.337 Q 970.501 542.860 968.553 556.897 Q 966.606 570.934 966.175 572.667 "></path>
    <path id="STROKE_df843595-4b11-4a35-b59e-241e2d2c09ae" opacity="1.000" fill="none" stroke="#072b67" stroke-width="1.436" stroke-opacity="1.000" stroke-linecap="round" stroke-linejoin="round" d="M 964.035 623.410 Q 964.053 623.310 964.631 625.040 Q 965.208 626.769 965.915 636.789 Q 966.621 646.809 966.621 647.618 "></path>
    <path id="STROKE_662ab9ba-0256-46ad-a1a8-01379fb15028" opacity="1.000" fill="none" stroke="#072b67" stroke-width="1.166" stroke-opacity="1.000" stroke-linecap="round" stroke-linejoin="round" d="M 963.381 693.627 Q 963.607 693.001 963.085 709.591 Q 962.564 726.182 962.281 727.324 "></path>
    <path id="STROKE_ea269107-855a-4342-bacb-11ed816ee911" opacity="1.000" fill="none" stroke="#072b67" stroke-width="1.190" stroke-opacity="1.000" stroke-linecap="round" stroke-linejoin="round" d="M 961.330 770.945 Q 962.312 770.518 962.408 784.798 Q 962.504 799.078 962.281 800.427 "></path>
    <path id="STROKE_ad5ce2dc-e5bd-427b-a565-aa5b9e51e286" opacity="1.000" fill="none" stroke="#072b67" stroke-width="1.374" stroke-opacity="1.000" stroke-linecap="round" stroke-linejoin="round" d="M 961.865 851.730 Q 961.394 850.985 962.091 860.592 Q 962.787 870.198 962.846 871.060 "></path>
    <path id="STROKE_1e23a4c6-f685-4aa1-ae49-a34b78031d9a" opacity="1.000" fill="none" stroke="#072b67" stroke-width="1.191" stroke-opacity="1.000" stroke-linecap="round" stroke-linejoin="round" d="M 959.160 913.414 Q 959.307 913.125 958.936 928.603 Q 958.566 944.080 958.180 945.263 "></path>
    <path id="STROKE_d000efba-e982-4766-b9aa-d627bd5f0b1c" opacity="1.000" fill="none" stroke="#072b67" stroke-width="1.130" stroke-opacity="1.000" stroke-linecap="round" stroke-linejoin="round" d="M 956.247 971.943 Q 956.248 974.312 956.247 973.780 Q 955.703 974.558 957.023 988.022 Q 958.343 1001.487 958.507 1002.940 "></path>
    <path id="STROKE_27cb58bb-5b58-4b2e-b5c2-ec91396d03e3" opacity="1.000" fill="none" stroke="#072b67" stroke-width="0.906" stroke-opacity="1.000" stroke-linecap="round" stroke-linejoin="round" d="M 975.598 884.783 Q 977.233 884.783 976.891 884.783 Q 978.846 884.808 978.169 884.835 Q 977.077 885.775 983.505 886.242 Q 989.932 886.708 1003.962 885.625 Q 1017.992 884.542 1026.348 884.165 Q 1034.705 883.788 1039.984 883.141 Q 1045.264 882.494 1068.279 882.158 Q 1091.295 881.822 1103.395 881.812 Q 1115.494 881.801 1121.547 882.072 Q 1127.600 882.342 1137.264 883.067 Q 1146.927 883.792 1162.230 884.099 Q 1177.532 884.406 1191.544 884.294 Q 1205.556 884.182 1215.144 883.974 Q 1224.731 883.766 1251.661 879.769 Q 1251.881 879.005 1249.697 879.143 Q 1247.514 879.281 1247.187 879.281 "></path>
    <path id="STROKE_a20e5904-b1ca-4047-8b77-9dea6b590ded" opacity="1.000" fill="none" stroke="#072b67" stroke-width="1.185" stroke-opacity="1.000" stroke-linecap="round" stroke-linejoin="round" d="M 1248.584 867.281 Q 1248.584 865.025 1248.584 865.672 Q 1248.584 865.506 1248.584 865.246 Q 1246.960 865.412 1248.925 870.324 Q 1250.889 875.237 1252.492 877.816 Q 1254.096 880.395 1255.972 882.356 Q 1257.848 884.317 1259.916 885.869 Q 1261.985 887.421 1263.268 889.320 Q 1263.398 890.089 1258.154 892.339 Q 1252.910 894.590 1244.927 899.077 Q 1236.945 903.563 1233.773 906.921 Q 1230.601 910.279 1230.333 910.819 "></path>
    <path id="STROKE_2d8b36b3-0f1a-4618-83d5-7725a2527d2f" opacity="1.000" fill="none" stroke="#072b67" stroke-width="0.915" stroke-opacity="1.000" stroke-linecap="round" stroke-linejoin="round" d="M 1100.261 931.228 Q 1099.296 931.830 1098.210 931.872 Q 1098.497 932.837 1110.233 925.291 Q 1121.968 917.745 1128.615 913.524 Q 1135.261 909.303 1135.811 908.971 "></path>
    <path id="STROKE_9b5d26fd-c63e-474e-816b-4d621b6c440b" opacity="1.000" fill="none" stroke="#072b67" stroke-width="1.036" stroke-opacity="1.000" stroke-linecap="round" stroke-linejoin="round" d="M 1107.276 911.359 Q 1106.439 910.892 1105.809 910.468 Q 1105.179 910.044 1105.329 910.113 Q 1105.431 910.425 1105.286 910.257 Q 1105.141 910.089 1104.779 908.120 Q 1104.399 907.364 1109.206 913.661 Q 1114.013 919.958 1129.905 933.960 Q 1145.798 947.962 1146.393 948.398 "></path>
  </g>
</svg>